<?xml version="1.0" encoding="UTF-8" standalone="no"?>
<!-- Created with Inkscape (http://www.inkscape.org/) -->

<svg
   width="154mm"
   height="148mm"
   viewBox="0 0 154 148"
   version="1.1"
   id="svg3412"
   inkscape:version="1.2 (1:1.2.1+202207142221+cd75a1ee6d)"
   sodipodi:docname="duck_white.svg"
   xml:space="preserve"
   xmlns:inkscape="http://www.inkscape.org/namespaces/inkscape"
   xmlns:sodipodi="http://sodipodi.sourceforge.net/DTD/sodipodi-0.dtd"
   xmlns="http://www.w3.org/2000/svg"
   xmlns:svg="http://www.w3.org/2000/svg"><sodipodi:namedview
     id="namedview3414"
     pagecolor="#ffffff"
     bordercolor="#000000"
     borderopacity="0.25"
     inkscape:showpageshadow="2"
     inkscape:pageopacity="0.0"
     inkscape:pagecheckerboard="0"
     inkscape:deskcolor="#d1d1d1"
     inkscape:document-units="mm"
     showgrid="false"
     inkscape:zoom="0.914906"
     inkscape:cx="385.28548"
     inkscape:cy="355.77425"
     inkscape:window-width="2516"
     inkscape:window-height="1376"
     inkscape:window-x="44"
     inkscape:window-y="507"
     inkscape:window-maximized="1"
     inkscape:current-layer="svg3412" /><defs
     id="defs3409" /><g
     inkscape:label="Layer 1"
     inkscape:groupmode="layer"
     id="layer1"><path
       id="path3316"
       style="fill:#f9f9f9;stroke:#000000;stroke-width:2.80989;stroke-miterlimit:7.2;stroke-dasharray:none"
       d="m 54.964282,124.64664 a 14.529868,6.4606048 17.651649 0 0 -1.512798,1.83815 14.529868,6.4606048 17.651649 0 0 11.886623,10.56256 14.529868,6.4606048 17.651649 0 0 15.804746,-1.75077 14.529868,6.4606048 17.651649 0 0 -0.323395,-2.73066 c -4.85247,-0.40878 -11.271928,-1.77686 -19.755693,-5.26922 -1.52917,-0.62949 -3.668465,-1.5438 -6.099464,-2.65006 z" /><path
       id="ellipse3318"
       style="fill:#f9f9f9;stroke:#000000;stroke-width:2.80989;stroke-miterlimit:7.2;stroke-dasharray:none"
       d="m 137.85641,110.98946 c -3.67124,8.44985 -10.33758,14.02424 -19.91884,17.40491 a 6.0226109,13.593226 48.322214 0 0 0.76943,1.51136 6.0226109,13.593226 48.322214 0 0 14.29629,-4.85409 6.0226109,13.593226 48.322214 0 0 5.81758,-13.42743 6.0226109,13.593226 48.322214 0 0 -0.96446,-0.63475 z" /><path
       id="path3277"
       style="fill:#f9f9f9;stroke:#000000;stroke-width:2.80989;stroke-miterlimit:7.2;stroke-dasharray:none"
       d="m 25.337744,39.737774 c 0,0 -0.890776,4.248963 -1.075952,6.406469 -0.218693,2.547607 -1.069226,5.331643 -0.03706,7.671155 0.20978,0.47552 0.589805,0.97132 1.045541,1.45584 7.142045,0.6803 11.438331,0.86669 16.960342,-0.3567 1.191384,-0.26396 2.188683,-0.54575 3.123587,-0.87466 l -7.168174,-5.745644 z" /><path
       id="path3279"
       style="fill:#f9f9f9;stroke:#000000;stroke-width:2.80989;stroke-miterlimit:7.2;stroke-dasharray:none"
       d="m 17.10906,45.761939 c 0,0 -1.515083,4.397723 -1.448598,6.672439 0.107658,3.6836 0.856186,7.55028 2.615781,10.79861 l 12.526212,4.46068 c 0.858048,0.26607 5.057536,1.74228 6.826419,2.0737 l -0.806114,-1.39791 c -1.323059,-1.09725 -3.873081,-3.25763 -5.19681,-4.69094 -2.386247,-2.5838 -6.373164,-8.40873 -6.373164,-8.40873 0.0084,8.1e-4 0.01642,0.002 0.02439,0.002 -0.457838,-0.48744 -0.838514,-0.98756 -1.049885,-1.46742 -0.45385,-1.03047 -0.544123,-2.14761 -0.483188,-3.292057 z" /><path
       id="path3292"
       style="fill:#f9f9f9;stroke:#000000;stroke-width:2.80989;stroke-miterlimit:7.2;stroke-dasharray:none"
       d="m 11.002836,61.375048 c 0,0 -2.3577208,6.21349 -2.7992108,9.47744 -0.358436,2.65002 -0.4805,5.42052 0.146734,8.02016 1.304149,5.4051 3.6236948,10.84195 7.3351948,14.98221 3.425193,3.82079 7.721413,9.128512 12.375605,11.387032 -1.012193,-1.67709 -1.760796,-3.26328 -2.416907,-5.16785 -1.91602,-5.561872 -2.717631,-17.437742 -2.717631,-17.437742 l 10.552424,3.3215 c -1.389581,-1.86284 -7.815175,-7.05392 -10.609377,-11.44061 -1.202937,-1.88852 -2.474104,-5.12134 -3.374107,-7.64509 l -3.09318,-2.25713 z" /><path
       id="path3210"
       style="fill:#f9f9f9;stroke:#000000;stroke-width:2.80989;stroke-miterlimit:7.2;stroke-dasharray:none"
       d="m 65.403203,38.17625 c -4.435471,5.037299 -4.393473,6.82131 -9.798688,10.843606 -6.955505,3.506172 -8.617401,4.840822 -13.373814,5.894632 -5.526604,1.22442 -9.825432,1.03696 -16.978145,0.3553 0,0 3.98733,5.82508 6.373581,8.40889 1.832057,1.98371 6.047217,5.3903 6.047217,5.3903 3.34469,2.18991 -5.575212,-0.97354 -6.870814,-1.37531 l -12.526438,-4.4605 c 0,0 2.41185,7.8587 4.593604,11.2839 2.794201,4.38669 9.219978,9.57796 10.609573,11.44081 l -10.552606,-3.32141 c 0,0 0.801751,11.87554 2.717776,17.437422 1.121746,3.25623 2.507621,5.58028 5.033991,9.02274 5.381677,7.33313 23.646497,15.42615 30.385218,18.20016 11.309775,4.6557 18.950854,5.53622 24.101632,5.40142 36.91996,9e-5 56.04788,-9.88312 56.04767,-40.433262 -9.3e-4,-11.18163 -4.95986,-21.19423 -10.31237,-29.55954 -4.80859,-7.51513 -9.5667,-12.336637 -19.29374,-18.74024"
       sodipodi:nodetypes="ccacacccaccassccsc" /><path
       id="path3212"
       style="fill:#f9f9f9;stroke:#000000;stroke-width:2.80989;stroke-miterlimit:7.2;stroke-dasharray:none"
       d="m 91.572186,9.6449436 c -7.013067,-0.05549 -13.775304,4.2732544 -15.967415,9.0217674 -4.085263,8.417232 -6.361882,13.218486 -10.60697,20.025039 -0.724811,1.523334 -0.813235,4.251637 -0.97217,5.5627 0.442077,6.981821 2.091284,13.015878 11.357576,15.899838 5.703106,1.77504 17.918999,0.0531 17.918999,0.0531 0,0 2.2719,-0.23666 4.61419,-0.49718 0.87125,-0.0967 1.71715,-0.19407 2.494624,-0.28625 -2.569064,-1.32402 -4.864414,-2.84658 -7.033514,-4.66052 -2.19087,-1.8322 -4.28206,-3.871179 -5.781846,-6.323442 -0.70318,-1.217403 -0.795419,-2.584712 -0.02908,-3.768481 l 0.121168,-0.166061 c 0.853768,-1.199001 2.677008,-1.36052 3.250538,-2.834449 1.46454,-2.849907 1.86942,-6.0669 2.8914,-9.077275 l 1.02624,-3.444106 c 2.2058,1.746582 4.20009,4.125605 7.063434,4.737274 1.63308,-0.24379 2.39425,-2.189292 2.9836,-3.562854 0.26513,-0.975106 0.53316,-1.878614 1.05616,-0.472567 1.53939,2.393494 1.60732,5.332365 2.09254,8.054907 0.29299,2.84779 1.0058,5.773189 2.9025,7.998915 l 0.25533,-1.008853 0.27081,-1.595824 C 111.25011,35.894035 109.97088,26.434967 108.05937,19.993184 106.1916,14.269086 98.757236,9.7017236 91.572076,9.6449436 Z" /><path
       id="ellipse3214"
       style="fill:#000000;stroke:#000000;stroke-width:2.80989;stroke-miterlimit:7.2;stroke-dasharray:none"
       d="m 82.983794,27.430184 a 1.8896992,2.4641151 8.6886743 0 1 -2.423061,1.759782 1.8896992,2.4641151 8.6886743 0 1 -1.17679,-2.988773 1.8896992,2.4641151 8.6886743 0 1 2.423071,-1.759778 1.8896992,2.4641151 8.6886743 0 1 1.17678,2.988769 z" /><path
       style="display:inline;fill:#f9f9f9;stroke:#000000;stroke-width:2.80989;stroke-miterlimit:7.2;stroke-dasharray:none"
       d="m 87.687978,44.505333 c 0.853768,-1.199002 2.676878,-1.360563 3.250398,-2.834492 1.46454,-2.849912 1.86957,-6.066633 2.89156,-9.077012 l 1.02607,-3.444069 c 2.2058,1.746582 4.20016,4.125417 7.063514,4.737086 1.63308,-0.243789 2.3942,-2.189287 2.98356,-3.562849 0.26513,-0.97511 0.53305,-1.878496 1.05605,-0.472445 1.53939,2.393494 1.60733,5.332247 2.09254,8.054794 0.29957,2.911527 1.03467,5.906206 3.02854,8.149238 2.2481,3.007391 5.5288,5.218356 7.1608,8.672204 1.25568,2.48912 -0.73328,5.26157 -2.97917,6.31964 -2.13465,0.96691 -4.43438,0.76654 -6.68355,0.69952 -2.03255,-0.17976 -4.33924,-0.54972 -6.58325,-1.54679 -3.225854,-1.49855 -6.012154,-3.25799 -8.617624,-5.43684 -2.19087,-1.83221 -4.28192,-3.870988 -5.781704,-6.323251 -0.703181,-1.217404 -0.795396,-2.58475 -0.02908,-3.768524 z"
       id="path3216"
       sodipodi:nodetypes="cacccacscccscaccc" /><path
       id="ellipse3218"
       style="fill:#f9f9f9;stroke:#000000;stroke-width:2.80989;stroke-miterlimit:7.2;stroke-dasharray:none"
       d="m 99.433596,41.506938 a 1.2509098,0.62226411 49.366895 0 1 0.968044,1.438203 1.2509098,0.62226411 49.366895 0 1 -0.914374,0.2497 1.2509098,0.62226411 49.366895 0 1 -0.96804,-1.438207 1.2509098,0.62226411 49.366895 0 1 0.91437,-0.249696 z" /></g></svg>
